<svg width="50" height="30" viewBox="0 0 50 30" fill="none" xmlns="http://www.w3.org/2000/svg">
<path fill-rule="evenodd" clip-rule="evenodd" d="M48.5661 0.833008C48.8484 0.833008 49.0824 1.04051 49.0824 1.2962V29.0759C49.0824 29.3275 48.8484 29.5364 48.5661 29.5364H41.9156C41.6304 29.5364 41.3993 29.3275 41.3993 29.0759V1.2962C41.3993 1.04051 41.6304 0.833008 41.9156 0.833008H48.5661ZM19.7087 0.833008C24.7255 0.833008 29.9704 1.04319 32.5564 3.41271C35.1013 5.74467 35.3758 10.3869 35.3862 14.8951L35.3865 29.0759C35.3865 29.3275 35.1554 29.5364 34.8702 29.5364H28.2226C27.9374 29.5364 27.7049 29.3275 27.7049 29.0759V14.6512C27.6975 12.1331 27.5396 9.54536 26.1208 8.24279C24.8996 7.12229 22.6208 6.86525 20.2514 6.8117H8.19942C7.91568 6.8117 7.68458 7.02054 7.68458 7.27222V29.0759C7.68458 29.3275 7.45056 29.5364 7.16682 29.5364H0.513375C0.229627 29.5364 0 29.3275 0 29.0759V1.2962C0 1.04051 0.229627 0.833008 0.513375 0.833008H19.7087ZM21.1977 11.8961C21.48 11.8961 21.7096 12.1036 21.7096 12.3567V29.0759C21.7096 29.3275 21.48 29.5364 21.1977 29.5364H14.2122C13.9256 29.5364 13.6945 29.3275 13.6945 29.0759V12.3567C13.6945 12.1036 13.9256 11.8961 14.2122 11.8961H21.1977Z" fill="#FF4C0D"/>
</svg>
